<?xml version="1.0" standalone="no"?>
<!DOCTYPE svg PUBLIC "-//W3C//DTD SVG 20010904//EN"
 "http://www.w3.org/TR/2001/REC-SVG-20010904/DTD/svg10.dtd">
<svg version="1.0" xmlns="http://www.w3.org/2000/svg"
 width="1024.000000pt" height="1024.000000pt" viewBox="0 0 1024.000000 1024.000000"
 preserveAspectRatio="xMidYMid meet">
<metadata>
Created by potrace 1.11, written by Peter Selinger 2001-2013
</metadata>
<g transform="translate(0.000000,1024.000000) scale(0.100000,-0.100000)"
fill="#000000" stroke="none">
<path d="M6285 8634 c-16 -2 -73 -9 -125 -15 -188 -20 -475 -72 -1037 -185
l-571 -115 -154 27 c-175 30 -359 42 -400 25 -38 -14 -68 -67 -68 -118 0 -34
5 -46 30 -67 17 -14 47 -28 67 -32 56 -11 265 3 401 26 l124 20 161 -30 c717
-131 1154 -183 1552 -184 325 -1 481 24 652 104 140 65 213 151 213 250 0 142
-137 243 -384 285 -81 14 -371 19 -461 9z m460 -129 c100 -19 182 -52 226 -92
48 -44 54 -64 33 -109 -34 -72 -185 -145 -374 -180 -189 -35 -565 -29 -960 17
-242 28 -775 111 -786 122 -5 5 859 175 1023 202 150 24 374 51 483 59 87 6
278 -5 355 -19z"/>
<path d="M3655 8256 c-46 -21 -612 -595 -621 -629 -3 -16 -4 -47 -1 -69 5 -39
27 -63 316 -352 l311 -311 0 -643 c0 -704 -1 -696 59 -726 45 -24 687 -24 732
0 53 27 59 59 59 301 l0 218 253 -253 c234 -234 257 -254 295 -259 57 -8 86 2
133 44 52 47 69 81 69 140 l0 48 -907 907 -908 908 212 212 c116 117 216 223
222 235 6 12 11 42 11 66 0 55 -40 115 -103 151 -48 29 -87 32 -132 12z"/>
<path d="M4245 7881 c-22 -10 -50 -29 -62 -42 -22 -24 -73 -119 -73 -136 0 -5
14 -17 31 -27 17 -10 28 -20 25 -23 -2 -3 -37 0 -77 7 -144 25 -287 -21 -263
-84 8 -21 59 -36 145 -43 l77 -6 -20 -56 c-56 -156 26 -343 180 -414 37 -16
67 -21 137 -22 79 0 97 4 146 28 71 34 140 107 164 172 10 28 19 51 20 53 1 1
49 -20 105 -48 129 -63 161 -65 189 -12 35 66 -52 203 -159 251 -60 27 -70 26
-71 -6 l-1 -28 -13 30 c-10 20 -14 72 -15 163 0 161 -6 172 -96 172 -40 0 -84
11 -161 40 -136 51 -159 55 -208 31z"/>
<path d="M7025 7103 c-251 -21 -476 -103 -660 -240 -145 -108 -296 -286 -374
-440 l-21 -41 -272 109 c-150 60 -281 109 -292 109 -12 0 -60 -40 -118 -98
-82 -82 -98 -103 -98 -129 0 -32 29 -63 58 -63 8 0 52 36 97 80 l82 81 79 -31
c43 -17 82 -34 87 -37 5 -3 -68 -83 -162 -177 -178 -180 -193 -202 -155 -240
39 -39 60 -25 260 175 l190 190 100 -40 c64 -26 98 -44 96 -53 -55 -208 -66
-298 -59 -448 10 -195 50 -342 144 -522 178 -343 509 -580 901 -644 116 -19
328 -14 440 10 504 110 875 494 973 1007 18 95 16 328 -4 429 -99 504 -481
892 -975 989 -98 19 -244 31 -317 24z m195 -123 c262 -30 498 -147 680 -336
137 -143 222 -287 274 -465 176 -610 -186 -1236 -809 -1400 -79 -21 -111 -24
-270 -23 -162 0 -190 3 -277 26 -429 116 -748 466 -824 902 -22 123 -15 318
16 444 20 86 24 94 44 89 11 -2 248 -95 525 -206 309 -124 514 -201 530 -199
15 2 31 14 40 29 31 56 25 59 -538 285 -312 124 -521 213 -521 221 0 7 19 45
43 84 231 386 652 599 1087 549z"/>
<path d="M3721 5326 c-9 -10 -9 -20 -2 -33 5 -10 459 -467 1008 -1015 l998
-996 60 -18 c51 -14 69 -15 115 -6 112 24 190 119 190 231 -1 76 -25 126 -104
206 l-66 67 0 700 c0 770 3 738 -63 807 -69 72 -54 71 -613 71 -560 0 -551 1
-496 -62 63 -70 383 -363 419 -382 29 -15 65 -21 158 -25 l120 -6 3 -315 2
-315 -537 536 c-486 485 -543 538 -587 553 -69 22 -587 24 -605 2z"/>
<path d="M4027 4392 c-14 -16 -17 -43 -17 -170 l0 -152 -29 0 c-49 0 -202 -30
-288 -55 -110 -34 -265 -113 -360 -184 -319 -237 -503 -602 -503 -995 0 -469
255 -887 670 -1100 294 -151 628 -179 944 -79 373 117 682 426 799 799 77 244
77 513 1 756 -35 112 -121 278 -189 363 -30 39 -58 76 -61 83 -4 7 14 34 40
62 53 56 57 80 19 109 -34 27 -56 21 -113 -34 l-45 -43 -40 35 c-67 59 -152
113 -259 164 -124 59 -242 94 -375 110 l-101 13 0 151 c0 134 -2 154 -18 168
-24 22 -55 21 -75 -1z m-17 -1015 c0 -432 3 -576 12 -585 7 -7 26 -12 42 -12
27 0 80 49 433 402 386 385 403 402 418 383 188 -238 268 -454 268 -730 1
-477 -295 -895 -750 -1058 -223 -80 -513 -80 -736 0 -354 127 -619 416 -719
785 -19 72 -22 108 -23 268 0 163 3 196 24 275 98 372 369 667 726 790 70 24
212 53 263 54 l42 1 0 -573z m333 542 c146 -37 334 -133 446 -229 l25 -21
-347 -347 -347 -347 0 489 0 489 72 -7 c39 -3 107 -16 151 -27z"/>
</g>
</svg>
