<svg id="Ebene_2" data-name="Ebene 2" xmlns="http://www.w3.org/2000/svg" viewBox="0 0 2000 2000"><title>wohetsno</title><circle cx="1000" cy="1000" r="1000" style="fill:none"/><path d="M1296.16,612.21c-97.58,0-181.84,58.08-220,141.48l-46-18.41-.15,0-58.59-23.44a11.52,11.52,0,0,0-12.42,2.55L926,747.25a11.52,11.52,0,0,0,16.29,16.28L969.85,736l35.35,14.14-64.93,64.92a11.52,11.52,0,1,0,16.29,16.29l71.9-71.91,39.08,15.63a241.05,241.05,0,0,0-13.26,79c0,133.38,108.5,241.88,241.88,241.88S1538,987.47,1538,854.09,1429.53,612.21,1296.16,612.21Zm0,460.73c-120.67,0-218.85-98.18-218.85-218.85A217.9,217.9,0,0,1,1089,783.64l202.9,81.15a11.52,11.52,0,0,0,8.55-21.39l-202.86-81.14c34.78-74.92,110.72-127,198.62-127,120.67,0,218.84,98.17,218.84,218.84S1416.83,1072.94,1296.16,1072.94Z"/><path d="M625.33,654.54V903.69a19.8,19.8,0,0,0,19.74,19.75h125a19.8,19.8,0,0,0,19.74-19.75V819.07l93.61,93.61a27.09,27.09,0,0,0,38.31,0l8.23-8.23a27.09,27.09,0,0,0,0-38.31L775.9,712l-75.82-75.83h0L668.81,605l-29.52-29.53h0l-56.51-56.5,79.57-79.56a27.1,27.1,0,0,0,0-38.32l-8.23-8.22a27.09,27.09,0,0,0-38.31,0l-98.72,98.72-8.22,8.22a27.09,27.09,0,0,0,0,38.31Z"/><path d="M758.65,627.24a65.83,65.83,0,0,0,64.23-51.47c12.45,6.44,24.27,12.47,35.24,17.21,38.46,16.65,28.83-47.28-22-58.09,0,0,1.91,16.56-3.75,6.64s-.63-53.37-4-60.67-19.64-7.16-26.9-6.95-28.54-10.81-45.89-15.35-35.67,11.54-43.5,38.3l13.51,7.67c-1.29.75-2.56,1.53-3.8,2.37a105.49,105.49,0,0,0-12.21-2.76c-47-10.56-81.63,24.06-21.21,24.54,4.25,0,8.51.3,12.78.74a65.81,65.81,0,0,0,57.5,97.82Z"/><path d="M898.15,1268.39a11.52,11.52,0,1,0-16.29-16.29l-15.43,15.43a241,241,0,0,0-151.09-62.68v-54.58a11.52,11.52,0,1,0-23,0v54.58c-128,6-230.35,112.08-230.35,241.58,0,133.36,108.5,241.86,241.86,241.86s241.87-108.5,241.87-241.86a241,241,0,0,0-63-162.61Zm-48,15.45L715.34,1418.62V1227.9A218,218,0,0,1,850.12,1283.84Zm72.53,162.59c0,120.66-98.16,218.83-218.83,218.83S485,1567.09,485,1446.43c0-116.8,92-212.52,207.32-218.53v218.53a11.51,11.51,0,0,0,19.66,8.14l154.44-154.44A218,218,0,0,1,922.65,1446.43Z"/><path d="M797.79,398.4c7.68,1.37,15.39,2.76,23,4.13,90.74,16.35,215,38.75,320.08,38.75,48,0,88.77-6.87,117.91-19.88,38.71-17.27,44.49-39.19,44.49-50.71,0-27.21-32.37-59-123.61-59-71.16,0-182.94,23-281.57,43.37-35.71,7.37-70,14.44-100.1,19.95-25.26-4.5-47.25-8.22-64.5-10.41-28.39-3.59-44.23-3.57-50.51,6.51-9,12.26-7,21-3.67,26.23C689.14,413,721.21,412.27,797.79,398.4ZM902.7,377.65c97.54-20.11,208.1-42.9,276.91-42.9,73.27,0,100.57,22,100.57,35.94,0,10-11.53,21.06-30.84,29.68-18.27,8.15-51.93,17.88-108.52,17.88-89.94,0-195.19-16.92-280.27-32C873.71,383.6,887.73,380.73,902.7,377.65Zm-186.15,8.27a84,84,0,0,1-13.35-.45A93.07,93.07,0,0,1,716.55,385.92Z"/><path d="M1076.39,1278a19.42,19.42,0,0,0-4.33-6.56l-5.32-5.32V1002.88a46.54,46.54,0,0,0-46.53-46.54H842.51c-10.86,0-13.28,6.1-5.38,13.55l70,66c7.9,7.45,23.25,13.55,34.11,13.55h32.44v123.64L770.92,970.3c-7.68-7.68-22.85-14-33.71-14H645.07c-10.86,0-13.46,6.28-5.78,14l367,367a19.51,19.51,0,0,0,6.57,4.33,46.53,46.53,0,1,0,63.57-63.58Z"/></svg>